<svg width="208" height="50" viewBox="0 0 298 72" fill="none" xmlns="http://www.w3.org/2000/svg">
<path fill-rule="evenodd" clip-rule="evenodd" d="M147.704 6C128.003 6 106.569 25.5945 106.569 68.25H100.569C100.569 23.9055 123.27 -4.29153e-06 147.704 0C172.138 4.29153e-06 194.838 23.9055 194.838 68.25H188.838C188.838 25.5945 167.405 6 147.704 6Z" fill="url(#paint0_linear_2_149)"/>
<path d="M1.94193 66.4865C0.647313 65.4871 0.470775 64.331 1.41231 63.0182L10.1215 50.7618L2.88347 41.327C1.84384 40.0338 2.00077 38.8974 3.35424 37.9176C4.62924 36.879 5.76693 37.0163 6.76731 38.329L13.5935 47.2054L20.3019 38.329C21.2828 36.977 22.4399 36.8202 23.7739 37.8588C25.0685 38.8386 25.2255 39.9945 24.2446 41.327L16.6829 51.2615L25.6569 62.9594C26.618 64.2722 26.4808 65.4284 25.245 66.4277C23.9111 67.4663 22.7539 67.3094 21.7731 65.9574L13.2698 54.8767L5.41385 65.8986C4.43307 67.2507 3.27578 67.4465 1.94193 66.4865ZM37.5245 54.2007V55.6115C37.5245 58.1392 37.9854 59.8634 38.9074 60.7845C39.8294 61.6857 41.5654 62.1365 44.1153 62.1365H48.9407C50.9415 62.1365 52.4225 61.9502 53.3836 61.578C54.3447 61.2058 54.9823 60.5493 55.2961 59.6088C55.5119 58.8641 55.8062 58.296 56.1788 57.904C56.5712 57.5121 57.1596 57.3162 57.9442 57.3162C58.768 57.3162 59.3958 57.5318 59.8272 57.9628C60.2587 58.3938 60.3962 59.0209 60.2392 59.8439C59.8077 62.2736 58.6503 64.0862 56.7672 65.2814C54.8842 66.4766 52.2754 67.0743 48.9407 67.0743H44.1153C40.2119 67.0743 37.3087 66.1338 35.4061 64.2527C33.523 62.3716 32.5815 59.4912 32.5815 55.6115V48.7926C32.5815 44.8148 33.523 41.8953 35.4061 40.0338C37.3087 38.1527 40.2119 37.2317 44.1153 37.2709H48.9407C52.8639 37.2709 55.7669 38.2115 57.6499 40.0926C59.533 41.9541 60.4745 44.854 60.4745 48.7926V51.7317C60.4745 53.3777 59.6507 54.2007 58.003 54.2007H37.5245ZM44.1153 42.2088C41.5654 42.1695 39.8294 42.6104 38.9074 43.5314C37.9854 44.4524 37.5245 46.2061 37.5245 48.7926V49.2628H55.5315V48.7926C55.5315 46.2256 55.0706 44.4915 54.1486 43.5902C53.2464 42.6692 51.5104 42.2088 48.9407 42.2088H44.1153ZM73.7613 67.0743C72.1136 67.0743 71.2898 66.2513 71.2898 64.6054V39.7399C71.2898 38.0939 72.1136 37.2709 73.7613 37.2709C75.409 37.2709 76.2328 38.0939 76.2328 39.7399V42.0324C77.3902 40.4648 78.8614 39.2795 80.6463 38.476C82.451 37.6725 84.5106 37.2709 86.8251 37.2709C88.4728 37.2709 89.2967 38.0939 89.2967 39.7399C89.2967 41.3858 88.4728 42.2088 86.8251 42.2088C83.4318 42.2088 80.8426 42.8359 79.0574 44.0899C77.2725 45.3438 76.331 46.9997 76.2328 49.0571V64.6054C76.2328 66.2513 75.409 67.0743 73.7613 67.0743Z" fill="url(#paint1_linear_2_149)"/>
<path d="M213.376 67.0743C211.728 67.0743 210.905 66.2514 210.905 64.6054V39.7399C210.905 38.0939 211.728 37.2709 213.376 37.2709C215.024 37.2709 215.848 38.0939 215.848 39.7399V42.0324C217.005 40.4648 218.476 39.2795 220.261 38.476C222.066 37.6726 224.125 37.2709 226.44 37.2709C228.088 37.2709 228.912 38.0939 228.912 39.7399C228.912 41.3858 228.088 42.2088 226.44 42.2088C223.046 42.2088 220.457 42.8359 218.672 44.0899C216.887 45.3438 215.946 46.9997 215.848 49.0571V64.6054C215.848 66.2514 215.024 67.0743 213.376 67.0743ZM244.991 67.0743C241.086 67.0743 238.183 66.1338 236.281 64.2527C234.398 62.3521 233.457 59.4519 233.457 55.5527V48.7338C233.457 44.8148 234.387 41.9149 236.251 40.0338C238.134 38.1527 241.048 37.2317 244.991 37.2709H249.816C252.737 37.2709 255.032 37.7607 256.701 38.7405C258.386 39.7203 259.467 41.229 259.938 43.2669C260.114 44.0899 259.966 44.7266 259.495 45.1774C259.043 45.6281 258.386 45.8534 257.525 45.8534C256.76 45.8534 256.2 45.6575 255.847 45.2655C255.494 44.8736 255.171 44.325 254.877 43.6196C254.583 43.0905 254.041 42.728 253.257 42.5321C252.474 42.3165 251.325 42.2088 249.816 42.2088H244.991C242.46 42.1695 240.723 42.6104 239.782 43.5314C238.859 44.4327 238.4 46.1668 238.4 48.7338V55.5527C238.4 58.0999 238.859 59.834 239.782 60.7551C240.723 61.6761 242.46 62.1365 244.991 62.1365H249.816C251.325 62.1365 252.474 62.0384 253.257 61.8426C254.041 61.6269 254.583 61.2547 254.877 60.7257C255.171 59.981 255.494 59.4226 255.847 59.0503C256.218 58.6781 256.798 58.4919 257.584 58.4919C258.408 58.4919 259.043 58.7172 259.495 59.1679C259.966 59.6187 260.114 60.2554 259.938 61.0784C259.467 63.0965 258.386 64.6054 256.701 65.6047C255.032 66.5845 252.737 67.0743 249.816 67.0743H244.991ZM272.681 67.0743C271.034 67.0743 270.21 66.2514 270.21 64.6054V28.1595C270.21 26.5135 271.034 25.6905 272.681 25.6905C274.329 25.6905 275.153 26.5135 275.153 28.1595V40.7098C277.234 38.4172 280.294 37.2709 284.333 37.2709H285.981C289.904 37.2709 292.807 38.2115 294.69 40.0926C296.573 41.9736 297.514 44.8736 297.514 48.7926V64.6054C297.514 66.2514 296.691 67.0743 295.043 67.0743C293.395 67.0743 292.571 66.2514 292.571 64.6054V48.7926C292.571 46.2256 292.101 44.4915 291.159 43.5902C290.239 42.6692 288.511 42.2088 285.981 42.2088H284.333C281.979 42.2088 279.929 42.4832 278.185 43.0318C276.438 43.5608 275.428 44.4033 275.153 45.5595V64.6054C275.153 66.2514 274.329 67.0743 272.681 67.0743Z" fill="url(#paint2_linear_2_149)"/>
<path d="M149.469 48.2635C155.319 48.2635 160.062 43.5262 160.062 37.6824C160.062 31.8387 155.319 27.1013 149.469 27.1013C143.619 27.1013 138.877 31.8387 138.877 37.6824C138.877 43.5262 143.619 48.2635 149.469 48.2635Z" fill="url(#paint3_linear_2_149)"/>
<path d="M295.408 68.8378H1.17692C0.526926 68.8378 0 69.3642 0 70.0135C0 70.6628 0.526926 71.1892 1.17692 71.1892H295.408C296.058 71.1892 296.585 70.6628 296.585 70.0135C296.585 69.3642 296.058 68.8378 295.408 68.8378Z" fill="url(#paint4_linear_2_149)"/>
<defs>
<linearGradient id="paint0_linear_2_149" x1="148.646" y1="70.9459" x2="148.646" y2="-0.054063" gradientUnits="userSpaceOnUse">
<stop stop-color="#D4D4D4"/>
<stop offset="1" stop-color="#514D4D"/>
</linearGradient>
<linearGradient id="paint1_linear_2_149" x1="148.646" y1="70.9459" x2="148.646" y2="-0.054063" gradientUnits="userSpaceOnUse">
<stop stop-color="#D4D4D4"/>
<stop offset="1" stop-color="#514D4D"/>
</linearGradient>
<linearGradient id="paint2_linear_2_149" x1="148.646" y1="70.9459" x2="148.646" y2="-0.054063" gradientUnits="userSpaceOnUse">
<stop stop-color="#D4D4D4"/>
<stop offset="1" stop-color="#514D4D"/>
</linearGradient>
<linearGradient id="paint3_linear_2_149" x1="148.646" y1="70.9459" x2="148.646" y2="-0.054063" gradientUnits="userSpaceOnUse">
<stop stop-color="#D4D4D4"/>
<stop offset="1" stop-color="#514D4D"/>
</linearGradient>
<linearGradient id="paint4_linear_2_149" x1="148.646" y1="70.9459" x2="148.646" y2="-0.054063" gradientUnits="userSpaceOnUse">
<stop stop-color="#D4D4D4"/>
<stop offset="1" stop-color="#514D4D"/>
</linearGradient>
</defs>
</svg>
